<svg xmlns="http://www.w3.org/2000/svg" viewBox="0 0 800 290" role="img" aria-label="First team to score">
<rect width="800" height="290" fill="#fbfaf6"/>
<text x="400" y="28" text-anchor="middle" fill="#222939" font-family="Verdana,sans-serif" font-size="16" font-weight="700">Who scores first?</text>
<path d="M 280 155 L 280.00 60.00 A 95 95 0 1 1 274.63 249.85 Z" fill="#556B2F"/>
<path d="M 280 155 L 274.63 249.85 A 95 95 0 0 1 200.76 102.59 Z" fill="#3A5A7A"/>
<path d="M 280 155 L 200.76 102.59 A 95 95 0 0 1 280.00 60.00 Z" fill="#c4c0b4"/>
<circle cx="280" cy="155" r="48" fill="#fbfaf6"/>
<text x="280" y="160" text-anchor="middle" fill="#222939" font-family="Verdana,sans-serif" font-size="13" font-weight="700">first goal</text>
<rect x="430" y="90" width="18" height="18" fill="#556B2F"/>
<text x="460" y="104" fill="#222939" font-family="Verdana,sans-serif" font-size="14">Side A opens  50.9%</text>
<rect x="430" y="130" width="18" height="18" fill="#3A5A7A"/>
<text x="460" y="144" fill="#222939" font-family="Verdana,sans-serif" font-size="14">Side B opens  33.4%</text>
<rect x="430" y="170" width="18" height="18" fill="#c4c0b4"/>
<text x="460" y="184" fill="#222939" font-family="Verdana,sans-serif" font-size="14">0-0 in 90′  15.7%</text>
<text x="400" y="270" text-anchor="middle" fill="#60739f" font-family="Verdana,sans-serif" font-size="12">If someone scores in regulation, Side A opens about 60% of the time.</text>
</svg>
