<svg xmlns="http://www.w3.org/2000/svg" viewBox="0 0 800 255" role="img" aria-label="How the match is decided">
<rect width="800" height="255" fill="#fbfaf6"/>
<text x="400" y="28" text-anchor="middle" fill="#222939" font-family="Verdana,sans-serif" font-size="16" font-weight="700">How the champion is decided</text>
<rect x="60" y="70" width="680" height="48" rx="6" fill="#f5efe3"/>
<rect x="60.0" y="70" width="297.2" height="48" fill="#556B2F"/>
<text x="208.6" y="100" text-anchor="middle" fill="#fff" font-family="Verdana,sans-serif" font-size="11" font-weight="700">90′ A</text>
<rect x="357.2" y="70" width="153.7" height="48" fill="#3A5A7A"/>
<text x="434.0" y="100" text-anchor="middle" fill="#fff" font-family="Verdana,sans-serif" font-size="11" font-weight="700">90′ B</text>
<rect x="510.8" y="70" width="59.8" height="48" fill="#6B8F3A"/>
<text x="540.8" y="100" text-anchor="middle" fill="#fff" font-family="Verdana,sans-serif" font-size="11" font-weight="700">ET A</text>
<rect x="570.7" y="70" width="35.4" height="48" fill="#5A7A9A"/>
<rect x="606.0" y="70" width="67.3" height="48" fill="#B8860B"/>
<text x="639.7" y="100" text-anchor="middle" fill="#fff" font-family="Verdana,sans-serif" font-size="11" font-weight="700">Pens A</text>
<rect x="673.4" y="70" width="67.3" height="48" fill="#C4A35A"/>
<text x="707.0" y="100" text-anchor="middle" fill="#fff" font-family="Verdana,sans-serif" font-size="11" font-weight="700">Pens B</text>
<rect x="60" y="150" width="14" height="14" fill="#556B2F"/>
<text x="80" y="162" fill="#222939" font-family="Verdana,sans-serif" font-size="12">90′ A 43.7%</text>
<rect x="180" y="150" width="14" height="14" fill="#3A5A7A"/>
<text x="200" y="162" fill="#222939" font-family="Verdana,sans-serif" font-size="12">90′ B 22.6%</text>
<rect x="300" y="150" width="14" height="14" fill="#6B8F3A"/>
<text x="320" y="162" fill="#222939" font-family="Verdana,sans-serif" font-size="12">ET A 8.8%</text>
<rect x="420" y="150" width="14" height="14" fill="#5A7A9A"/>
<text x="440" y="162" fill="#222939" font-family="Verdana,sans-serif" font-size="12">ET B 5.2%</text>
<rect x="540" y="150" width="14" height="14" fill="#B8860B"/>
<text x="560" y="162" fill="#222939" font-family="Verdana,sans-serif" font-size="12">Pens A 9.9%</text>
<rect x="60" y="178" width="14" height="14" fill="#C4A35A"/>
<text x="80" y="190" fill="#222939" font-family="Verdana,sans-serif" font-size="12">Pens B 9.9%</text>
<text x="400" y="230" text-anchor="middle" fill="#60739f" font-family="Verdana,sans-serif" font-size="12">About one final in three needs extra time under this model.</text>
</svg>
