<svg xmlns="http://www.w3.org/2000/svg" viewBox="0 0 800 305" role="img" aria-label="Finished scoreline probabilities">
<rect width="800" height="305" fill="#fbfaf6"/>
<text x="400" y="28" text-anchor="middle" fill="#222939" font-family="Verdana,sans-serif" font-size="16" font-weight="700">Most common finished scorelines</text>
<text x="90" y="71" text-anchor="end" fill="#222939" font-family="Verdana,sans-serif" font-size="14" font-weight="700">1-0</text>
<rect x="110" y="55" width="480" height="26" rx="3" fill="#f5efe3"/>
<rect x="110" y="55" width="480.0" height="26" rx="3" fill="#556B2F"/>
<text x="600.0" y="72" fill="#222939" font-family="Verdana,sans-serif" font-size="13" font-weight="700">18.2%</text>
<text x="90" y="107" text-anchor="end" fill="#222939" font-family="Verdana,sans-serif" font-size="14" font-weight="700">0-1</text>
<rect x="110" y="91" width="480" height="26" rx="3" fill="#f5efe3"/>
<rect x="110" y="91" width="297.7" height="26" rx="3" fill="#3A5A7A"/>
<text x="417.7" y="108" fill="#222939" font-family="Verdana,sans-serif" font-size="13" font-weight="700">11.3%</text>
<text x="90" y="143" text-anchor="end" fill="#222939" font-family="Verdana,sans-serif" font-size="14" font-weight="700">2-1</text>
<rect x="110" y="127" width="480" height="26" rx="3" fill="#f5efe3"/>
<rect x="110" y="127" width="284.3" height="26" rx="3" fill="#556B2F"/>
<text x="404.3" y="144" fill="#222939" font-family="Verdana,sans-serif" font-size="13" font-weight="700">10.8%</text>
<text x="90" y="179" text-anchor="end" fill="#222939" font-family="Verdana,sans-serif" font-size="14" font-weight="700">2-0</text>
<rect x="110" y="163" width="480" height="26" rx="3" fill="#f5efe3"/>
<rect x="110" y="163" width="276.8" height="26" rx="3" fill="#556B2F"/>
<text x="396.8" y="180" fill="#222939" font-family="Verdana,sans-serif" font-size="13" font-weight="700">10.5%</text>
<text x="90" y="215" text-anchor="end" fill="#222939" font-family="Verdana,sans-serif" font-size="14" font-weight="700">1-1</text>
<rect x="110" y="199" width="480" height="26" rx="3" fill="#f5efe3"/>
<rect x="110" y="199" width="228.5" height="26" rx="3" fill="#B8860B"/>
<text x="348.5" y="216" fill="#222939" font-family="Verdana,sans-serif" font-size="13" font-weight="700">8.7%</text>
<text x="90" y="251" text-anchor="end" fill="#222939" font-family="Verdana,sans-serif" font-size="14" font-weight="700">0-0</text>
<rect x="110" y="235" width="480" height="26" rx="3" fill="#f5efe3"/>
<rect x="110" y="235" width="217.6" height="26" rx="3" fill="#B8860B"/>
<text x="337.6" y="252" fill="#222939" font-family="Verdana,sans-serif" font-size="13" font-weight="700">8.2%</text>
<text x="400" y="285" text-anchor="middle" fill="#60739f" font-family="Verdana,sans-serif" font-size="12">After 90 minutes, extra time if needed. 1-1 / 0-0 often head to penalties.</text>
</svg>
