<svg xmlns="http://www.w3.org/2000/svg" viewBox="0 0 720 360" role="img" aria-label="2026 prize money (USD millions)">
<rect width="720" height="360" fill="#fbfaf6"/>
<text x="360" y="28" text-anchor="middle" fill="#222939" font-family="Verdana,system-ui,sans-serif" font-size="15" font-weight="700">2026 prize money (USD millions)</text>
<line x1="70" y1="280.0" x2="690" y2="280.0" stroke="#e5e9f0" stroke-dasharray="3,3"/>
<text x="62" y="284.0" text-anchor="end" fill="#60739f" font-size="11" font-family="Verdana,sans-serif">0.0</text>
<line x1="70" y1="222.5" x2="690" y2="222.5" stroke="#e5e9f0" stroke-dasharray="3,3"/>
<text x="62" y="226.5" text-anchor="end" fill="#60739f" font-size="11" font-family="Verdana,sans-serif">15.6</text>
<line x1="70" y1="165.0" x2="690" y2="165.0" stroke="#e5e9f0" stroke-dasharray="3,3"/>
<text x="62" y="169.0" text-anchor="end" fill="#60739f" font-size="11" font-family="Verdana,sans-serif">31.2</text>
<line x1="70" y1="107.5" x2="690" y2="107.5" stroke="#e5e9f0" stroke-dasharray="3,3"/>
<text x="62" y="111.5" text-anchor="end" fill="#60739f" font-size="11" font-family="Verdana,sans-serif">46.9</text>
<line x1="70" y1="50.0" x2="690" y2="50.0" stroke="#e5e9f0" stroke-dasharray="3,3"/>
<text x="62" y="54.0" text-anchor="end" fill="#60739f" font-size="11" font-family="Verdana,sans-serif">62.5</text>
<rect x="102.6" y="96.0" width="89.9" height="184.0" fill="#8B6914"/>
<text x="147.5" y="88.0" text-anchor="middle" fill="#222939" font-size="15" font-weight="700" font-family="Verdana,sans-serif">50.00</text>
<text x="147.5" y="298" text-anchor="middle" fill="#60739f" font-size="11" font-family="Verdana,sans-serif">Champion</text>
<rect x="257.6" y="158.6" width="89.9" height="121.4" fill="#60739f"/>
<text x="302.5" y="150.6" text-anchor="middle" fill="#222939" font-size="15" font-weight="700" font-family="Verdana,sans-serif">33.00</text>
<text x="302.5" y="298" text-anchor="middle" fill="#60739f" font-size="11" font-family="Verdana,sans-serif">Runner-up</text>
<rect x="412.6" y="173.3" width="89.9" height="106.7" fill="#556B2F"/>
<text x="457.5" y="165.3" text-anchor="middle" fill="#222939" font-size="15" font-weight="700" font-family="Verdana,sans-serif">29.00</text>
<text x="457.5" y="298" text-anchor="middle" fill="#60739f" font-size="11" font-family="Verdana,sans-serif">3rd place</text>
<rect x="567.5" y="180.6" width="89.9" height="99.4" fill="#8B3A3A"/>
<text x="612.5" y="172.6" text-anchor="middle" fill="#222939" font-size="15" font-weight="700" font-family="Verdana,sans-serif">27.00</text>
<text x="612.5" y="298" text-anchor="middle" fill="#60739f" font-size="11" font-family="Verdana,sans-serif">4th place</text>
<text x="16" y="165.0" fill="#60739f" font-size="11" font-family="Verdana,sans-serif" transform="rotate(-90 16 165.0)">$ millions</text>
</svg>