<svg xmlns="http://www.w3.org/2000/svg" viewBox="0 0 720 360" role="img" aria-label="Avg starting XI changes (Opta, 2006 to 2022)">
<rect width="720" height="360" fill="#fbfaf6"/>
<text x="360" y="28" text-anchor="middle" fill="#222939" font-family="Verdana,system-ui,sans-serif" font-size="15" font-weight="700">Avg starting XI changes (Opta, 2006 to 2022)</text>
<line x1="70" y1="280.0" x2="690" y2="280.0" stroke="#e5e9f0" stroke-dasharray="3,3"/>
<text x="62" y="284.0" text-anchor="end" fill="#60739f" font-size="11" font-family="Verdana,sans-serif">0.0</text>
<line x1="70" y1="222.5" x2="690" y2="222.5" stroke="#e5e9f0" stroke-dasharray="3,3"/>
<text x="62" y="226.5" text-anchor="end" fill="#60739f" font-size="11" font-family="Verdana,sans-serif">1.2</text>
<line x1="70" y1="165.0" x2="690" y2="165.0" stroke="#e5e9f0" stroke-dasharray="3,3"/>
<text x="62" y="169.0" text-anchor="end" fill="#60739f" font-size="11" font-family="Verdana,sans-serif">2.4</text>
<line x1="70" y1="107.5" x2="690" y2="107.5" stroke="#e5e9f0" stroke-dasharray="3,3"/>
<text x="62" y="111.5" text-anchor="end" fill="#60739f" font-size="11" font-family="Verdana,sans-serif">3.7</text>
<line x1="70" y1="50.0" x2="690" y2="50.0" stroke="#e5e9f0" stroke-dasharray="3,3"/>
<text x="62" y="54.0" text-anchor="end" fill="#60739f" font-size="11" font-family="Verdana,sans-serif">4.9</text>
<rect x="113.4" y="209.2" width="119.9" height="70.8" fill="#3A5A7A"/>
<text x="173.3" y="201.2" text-anchor="middle" fill="#222939" font-size="15" font-weight="700" font-family="Verdana,sans-serif">1.50</text>
<text x="173.3" y="298" text-anchor="middle" fill="#60739f" font-size="11" font-family="Verdana,sans-serif">Semi-final</text>
<rect x="320.1" y="251.7" width="119.9" height="28.3" fill="#8B3A3A"/>
<text x="380.0" y="243.7" text-anchor="middle" fill="#222939" font-size="15" font-weight="700" font-family="Verdana,sans-serif">0.60</text>
<text x="380.0" y="298" text-anchor="middle" fill="#60739f" font-size="11" font-family="Verdana,sans-serif">Final</text>
<rect x="526.7" y="96.0" width="119.9" height="184.0" fill="#556B2F"/>
<text x="586.7" y="88.0" text-anchor="middle" fill="#222939" font-size="15" font-weight="700" font-family="Verdana,sans-serif">3.90</text>
<text x="586.7" y="298" text-anchor="middle" fill="#60739f" font-size="11" font-family="Verdana,sans-serif">3rd place</text>
<text x="16" y="165.0" fill="#60739f" font-size="11" font-family="Verdana,sans-serif" transform="rotate(-90 16 165.0)">XI changes</text>
</svg>