<svg xmlns="http://www.w3.org/2000/svg" viewBox="0 0 900 320" role="img">
<rect width="900" height="320" fill="#fbfaf6"/>
<text x="450" y="28" text-anchor="middle" fill="#222939" font-family="Verdana,sans-serif" font-size="15" font-weight="700">Third-place match goal totals, 1934 to 2022</text>
<line x1="50" y1="221.0" x2="880" y2="221.0" stroke="#8B3A3A" stroke-dasharray="5,4" stroke-width="1.5"/>
<text x="880" y="215.0" text-anchor="end" fill="#8B3A3A" font-size="10" font-family="Verdana,sans-serif">2-goal floor (post-1974)</text>
<rect x="56.2" y="155.0" width="29.0" height="110.0" fill="#556B2F"/>
<text x="70.8" y="279" text-anchor="middle" fill="#60739f" font-size="9" font-family="Verdana,sans-serif" transform="rotate(-50 70.8 279)">1934</text>
<text x="70.8" y="151.0" text-anchor="middle" fill="#222939" font-size="10" font-weight="700" font-family="Verdana,sans-serif">5</text>
<rect x="97.7" y="133.0" width="29.0" height="132.0" fill="#556B2F"/>
<text x="112.2" y="279" text-anchor="middle" fill="#60739f" font-size="9" font-family="Verdana,sans-serif" transform="rotate(-50 112.2 279)">1938</text>
<text x="112.2" y="129.0" text-anchor="middle" fill="#222939" font-size="10" font-weight="700" font-family="Verdana,sans-serif">6</text>
<rect x="139.2" y="177.0" width="29.0" height="88.0" fill="#556B2F"/>
<text x="153.8" y="279" text-anchor="middle" fill="#60739f" font-size="9" font-family="Verdana,sans-serif" transform="rotate(-50 153.8 279)">1954</text>
<rect x="180.7" y="67.0" width="29.0" height="198.0" fill="#556B2F"/>
<text x="195.2" y="279" text-anchor="middle" fill="#60739f" font-size="9" font-family="Verdana,sans-serif" transform="rotate(-50 195.2 279)">1958</text>
<text x="195.2" y="63.0" text-anchor="middle" fill="#222939" font-size="10" font-weight="700" font-family="Verdana,sans-serif">9</text>
<rect x="222.2" y="243.0" width="29.0" height="22.0" fill="#8B3A3A"/>
<text x="236.8" y="279" text-anchor="middle" fill="#60739f" font-size="9" font-family="Verdana,sans-serif" transform="rotate(-50 236.8 279)">1962</text>
<rect x="263.7" y="199.0" width="29.0" height="66.0" fill="#8B6914"/>
<text x="278.2" y="279" text-anchor="middle" fill="#60739f" font-size="9" font-family="Verdana,sans-serif" transform="rotate(-50 278.2 279)">1966</text>
<rect x="305.2" y="243.0" width="29.0" height="22.0" fill="#8B3A3A"/>
<text x="319.8" y="279" text-anchor="middle" fill="#60739f" font-size="9" font-family="Verdana,sans-serif" transform="rotate(-50 319.8 279)">1970</text>
<rect x="346.7" y="243.0" width="29.0" height="22.0" fill="#8B3A3A"/>
<text x="361.2" y="279" text-anchor="middle" fill="#60739f" font-size="9" font-family="Verdana,sans-serif" transform="rotate(-50 361.2 279)">1974</text>
<rect x="388.2" y="199.0" width="29.0" height="66.0" fill="#8B6914"/>
<text x="402.8" y="279" text-anchor="middle" fill="#60739f" font-size="9" font-family="Verdana,sans-serif" transform="rotate(-50 402.8 279)">1978</text>
<rect x="429.7" y="155.0" width="29.0" height="110.0" fill="#556B2F"/>
<text x="444.2" y="279" text-anchor="middle" fill="#60739f" font-size="9" font-family="Verdana,sans-serif" transform="rotate(-50 444.2 279)">1982</text>
<text x="444.2" y="151.0" text-anchor="middle" fill="#222939" font-size="10" font-weight="700" font-family="Verdana,sans-serif">5</text>
<rect x="471.2" y="133.0" width="29.0" height="132.0" fill="#556B2F"/>
<text x="485.8" y="279" text-anchor="middle" fill="#60739f" font-size="9" font-family="Verdana,sans-serif" transform="rotate(-50 485.8 279)">1986</text>
<text x="485.8" y="129.0" text-anchor="middle" fill="#222939" font-size="10" font-weight="700" font-family="Verdana,sans-serif">6</text>
<rect x="512.7" y="199.0" width="29.0" height="66.0" fill="#8B6914"/>
<text x="527.2" y="279" text-anchor="middle" fill="#60739f" font-size="9" font-family="Verdana,sans-serif" transform="rotate(-50 527.2 279)">1990</text>
<rect x="554.2" y="177.0" width="29.0" height="88.0" fill="#556B2F"/>
<text x="568.8" y="279" text-anchor="middle" fill="#60739f" font-size="9" font-family="Verdana,sans-serif" transform="rotate(-50 568.8 279)">1994</text>
<rect x="595.7" y="199.0" width="29.0" height="66.0" fill="#8B6914"/>
<text x="610.2" y="279" text-anchor="middle" fill="#60739f" font-size="9" font-family="Verdana,sans-serif" transform="rotate(-50 610.2 279)">1998</text>
<rect x="637.2" y="155.0" width="29.0" height="110.0" fill="#556B2F"/>
<text x="651.8" y="279" text-anchor="middle" fill="#60739f" font-size="9" font-family="Verdana,sans-serif" transform="rotate(-50 651.8 279)">2002</text>
<text x="651.8" y="151.0" text-anchor="middle" fill="#222939" font-size="10" font-weight="700" font-family="Verdana,sans-serif">5</text>
<rect x="678.7" y="177.0" width="29.0" height="88.0" fill="#556B2F"/>
<text x="693.2" y="279" text-anchor="middle" fill="#60739f" font-size="9" font-family="Verdana,sans-serif" transform="rotate(-50 693.2 279)">2006</text>
<rect x="720.2" y="155.0" width="29.0" height="110.0" fill="#556B2F"/>
<text x="734.8" y="279" text-anchor="middle" fill="#60739f" font-size="9" font-family="Verdana,sans-serif" transform="rotate(-50 734.8 279)">2010</text>
<text x="734.8" y="151.0" text-anchor="middle" fill="#222939" font-size="10" font-weight="700" font-family="Verdana,sans-serif">5</text>
<rect x="761.7" y="199.0" width="29.0" height="66.0" fill="#8B6914"/>
<text x="776.2" y="279" text-anchor="middle" fill="#60739f" font-size="9" font-family="Verdana,sans-serif" transform="rotate(-50 776.2 279)">2014</text>
<rect x="803.2" y="221.0" width="29.0" height="44.0" fill="#8B3A3A"/>
<text x="817.8" y="279" text-anchor="middle" fill="#60739f" font-size="9" font-family="Verdana,sans-serif" transform="rotate(-50 817.8 279)">2018</text>
<rect x="844.7" y="199.0" width="29.0" height="66.0" fill="#8B6914"/>
<text x="859.2" y="279" text-anchor="middle" fill="#60739f" font-size="9" font-family="Verdana,sans-serif" transform="rotate(-50 859.2 279)">2022</text>
</svg>